<svg xmlns="http://www.w3.org/2000/svg" width="256" height="256" viewBox="0 0 256 256"><path fill="#4379e6" d="M97.334 0 128 123 158.666 0Z"/><path fill="#a49787" d="M165.961 0 130.5 123.67 249.9277 0Z"/><path fill="#f0840c" d="M256 6.0723 132.33 125.5 256 90.039Z"/><path fill="#b70d0e" d="M256 97.334 133 128l123 30.666Z"/><path fill="#55142a" d="M132.33 130.5 256 249.9277V165.961z"/><path fill="#520c61" d="M130.5 132.33 165.961 256h83.9667z"/><path fill="#3e1601" d="M128 133 97.334 256h61.332z"/><path fill="#306800" d="M125.5 132.33 6.0723 256H90.039Z"/><path fill="#104ea2" d="M123.67 130.5 0 165.961v83.9667z"/><path d="M0 97.334v61.332L123 128Z"/><path fill="#00923d" d="M0 6.0723V90.039L123.67 125.5Z"/><path fill="#ffde55" d="M6.0723 0 125.5 123.67 90.039 0Z"/></svg>