<svg xmlns="http://www.w3.org/2000/svg" width="300" height="300" viewBox="0 0 300 300"><path fill="#4379e6" d="M150 3a147 147 0 0 0-33.8629 4.203c-1.6094.3936-2.559 2.0397-2.1302 3.64L150 145.168l36.0536-134.5554c.4289-1.6004-.523-3.2383-2.1348-3.6218A147 147 0 0 0 150 3Z" paint-order="stroke fill markers"/><path fill="#47dff9" d="M155.0793 36.2162c.7182-1.5894.7416-2.4077.5137-2.8484-.1496-.2893-.4294-.55-1.1942-.5465-.9162.004-1.295.2257-3.7873 2.2314-1.9214 1.5462-2.5827 2.017-3.5577 2.3819-1.3013.4868-3.1325.5902-5.0494.1556-.913-.2069-1.456-.4712-1.9567-.7112-.6183-.2965-1.5684-.9982-2.0332-1.4756-.6454-.663-1.221-1.338-1.658-2.3575.4284.4069.766.6662 1.4064 1.0911 3.8008 2.5222 6.9297 2.3103 9.647.3079.3804-.2803.9125-.723 1.9001-1.6596 2.0742-1.967 2.4894-2.2634 3.0544-2.5326.5663-.2699 1.061-.3845 1.9746-.3845 1.0045 0 1.5216.1203 2.0125.3484 1.5615.7258 2.4907 2.4179 2.4907 5.8302 0 1.3508-.111 2.142-.227 2.8155h-4.1747c-.0333-.836.2196-1.7188.6388-2.6461zm5.9864-4.7056c-.8778-3.015-2.5634-4.6982-4.4161-5.0956-.8298-.178-1.8325-.143-2.7825.1972-.7232.259-1.2614.5461-3.1628 2.3516-2.5274 2.3998-3.2647 2.9883-5.3564 3.5907-.4702.1355-.8552.2857-2.19.2857-1.279 0-2.4661-.169-4.144-.9997-1.3588-.6728-1.8097-1.1877-2.174-1.8188-.2795-.484-.403-1.0038-.4391-1.6934-.0546-1.0402.058-1.8745.5443-2.8408.8756-1.7395 2.3877-2.5435 4.1712-2.5435 1.1639 0 1.778.4487 2.121 1.3153.2173.5488.198 1.111.1692 1.586-.1485-.3373-.3245-.832-.5498-1.0734-.3702-.3967-.794-.6905-1.4715-.6905-.6627 0-1.364.3874-1.775.876-1.6742 1.9896-.5402 4.0928 1.9832 4.2758 1.3345.0968 2.7195-.3233 3.7306-1.2367.241-.2178.8366-.8822 1.3603-1.503 2.2758-2.6974 3.5856-3.7558 4.7192-4.1799 2.1006-.786 4.7014-.6782 6.1682-.2763 1.8839.5161 3.3496 1.6025 4.3355 3.0848.6137.9227 1.0552 2.0416 1.2558 3.3041.2267 1.426.1838 3.5121-.2466 5.814-.2467 1.32-.7355 3.0844-1.3847 4.6033.2344-3.8446-.0898-6.0407-.466-7.3329z"/><path fill="#a49787" d="M188.4638 11.2786 152.414 145.8184l98.5036-98.5037c1.1716-1.1716 1.1654-3.065-.0399-4.2019a147.0005 147.0005 0 0 0-58.7547-33.902c-1.5874-.4746-3.2305.4674-3.6593 2.0678Z" paint-order="stroke fill markers"/><path fill="#72eb34" d="M205.3655 55.3092c2.2088-.2551 3.749-.7763 5.1111-2.013 1.056-.9587 1.9903-3.3571 1.8936-5.5692-.0877-2.0059-1.093-3.5428-3.548-6.1526-1.2766-1.357-2.28-2.7654-2.7295-3.6506-.4081-.8035-.5217-1.2255-.5217-2.036 0-.7238.1357-1.3692.4376-1.9373 1.2177-2.2912 3.532-2.9855 5.1527-2.7032 1.2383.2156 2.3097.8369 2.8383 1.9288.3405.7034.4467 1.3742-.1866 2.2753-.804 1.144-2.3104 1.3258-3.0454 1.3803.6826-.2504 2.0354-.9703 2.0354-2.0256 0-.6618-.6554-1.6034-1.9255-1.6034-.6294 0-1.1985.287-1.681.9938-.2647.3876-.377.7533-.377 1.1939 0 1.5373 1.6925 3.127 3.3492 4.3536 2.5052 1.855 5.8433 5.1207 6.1492 9.0821.0887 1.1487-.0365 2.3829-.4562 3.7706-.8876 2.9355-2.1012 4.4456-3.6303 6.071h-8.8659zm-.003-4.2867c1.2261-.1821 1.971-1.1484 1.5063-1.828-.6485-.9481-1.5119-.8888-2.8597-.4654-1.2607.3961-2.1792.56-3.0512.56-.5994 0-.9525-.0637-1.5194-.341-1.795-.878-2.3592-2.867-1.2348-5.2495.7633-1.6175 2.379-2.813 4.5391-3.5727-1.855 1.0454-3.301 2.1536-3.301 3.8108 0 .864.3976 1.4094.7672 1.7007.7606.5995 1.7654.6673 3.1834.229.5887-.182 1.3057-.3193 2.1015-.3518 1.0276-.042 1.5034.027 2.0583.2322 1.1399.4216 1.6358.8887 2.1044 1.7476.5572 1.0212.687 2.281.1942 3.5312-.3703.9395-.7674 1.5936-2.2438 2.3845-.9286.4975-1.8041.6812-2.2445.6824z"/><path fill="#f0840c" d="m252.6853 49.0823-98.5037 98.5036 134.5398-36.0497c1.6004-.4288 2.5424-2.0719 2.0678-3.6593a147.0002 147.0002 0 0 0-33.902-58.7547c-1.1368-1.2053-3.0303-1.2115-4.2019-.04z" paint-order="stroke fill markers"/><path fill="#f6fa4e" d="M254.1788 102.8292c.3863-.6462.5508-.9722.5508-1.2753 0-.5845-.5764-.8773-.9405-.9927-.6072-.1924-.8366-.3772-1.0523-.9462-.0767-.2024-.0855-.5495.0294-.7233.0857-.1297.2926-.2503.5587-.3035.7632-.1527.7356-.5853.2867-1.0342-.3685-.3685-.6663-1.047-.7088-1.545.2296.0956.4266.1389.9565.1389.416 0 .7876-.0556 1.271-.1389.0133.33.1214.6783.2578 1.03.2064.5326.329.9242.329 1.2374 0 .1633.027.3914-.4187.6879-.61.4057-.7285.9462-.3362 1.4474.3511.4487.3081.8688.1002 1.2761-.1775.3477-.2561.5854-.8836 1.1414zm-3.7242-7.2037c.251-.0433.3299.0787.5252.1446.248.0837.5967.2217.8677.2292-.1522.3149-.3055.3104-.5524.5484-.3613.3485-.3998.5181-.7323.643.0448-.1758.0523-.2692.0356-.588-.0306-.5863-.0754-.7807-.1438-.9772zm6.1605.8145c-.2655-.2346-.4525-.3978-.6303-.525.139-.2388 1.1492-.6918 1.3794-.722-.0233.133-.0457.2735-.0457.9227 0 .717.0383.8943.1416 1.0727-.2928-.1261-.5376-.4768-.845-.7484zm-9.6977.6242c.1627-.6154.256-.418.8218-1.4493.3972-.7241.5523-1.1594.7728-1.5164.2183.2721.3895.2784.6152.4835.2193.1993.4553.2284.712.5244-.2078.2524-.643.4176-1.3139.8357-1.2103.7545-1.2462.8959-1.6079 1.1221zm12.9612-.9612c-.2996-.217-.623-.4088-1.0477-.6227-.3927-.1978-.7146-.3438-1.0608-.552.4401-.3278.959-.8993 1.1255-1.286.1124.1267.132.303.25.5635.0873.193.3561.572.6574 1.0938.7332 1.2699.9408 1.1371 1.069 1.71-.3126-.3551-.5934-.617-.9934-.9066zm-7.8748-.7839c-1.2952-.35-2.141-.7887-3.034-1.6817-.9094-.9094-1.3283-1.7428-1.6801-3.0558-.2887-1.0771-.2324-1.8367-.027-2.6304.3898-1.5065 1.56-2.6327 2.8178-3.2258 1.083-.5107 1.9401-.6544 2.7085-.6544 1.5966 0 3.6156.6633 4.94 1.9876 1.3865 1.3866 1.7878 3.0563 1.734 4.5814-.0317.9032-.1255 1.134-.4269 1.7457-.6886 1.3974-1.9119 2.2865-3.3378 2.7881-1.1954.4206-2.3638.505-3.6945.1453zm-5.9223-1.5717c.38-.624.697-.6351 1.0642-1.3385.2239.1467.4858.7027.7092.9739-.2367.0504-.5023.0254-.8034.0768-.4751.081-.6888.1699-.97.2878zm13.1834-.4418c.1495-.2109.4276-.44.6506-1.28.2197.1806.2987.3505.5862.705.4713.581.5649.4534.6736.723-.2434-.0992-.366-.1352-.96-.1647-.4002-.0199-.7335-.0193-.9504.0167zm-17.3458-1.3244c-.461 0-.6868-.379-.7244-.5608-.0308-.149-.0928-.3417-.206-.4734-.2582-.3-.574-.2468-.8577-.1506-.4131.1402-.3654.2727-.855.3512.3283-.2843.4116-.4268.7477-.6098.6115-.333 1.1018-.4065 1.5128.0665.2331.2683.4133.366.5515.306.1807-.0785.2926-.2456.4043-.6637.2291-.8583 1.0186-1.2132 1.9102-.6445.577.368.8637.437 1.1773.2399.3885-.2442.7935-.2246 1.0352-.2134-.0466.1707-.0353.3534-.0217.5536.0122.1792.0954.594.1673.8623.0476.1777.1866.4546.292.5326-.3609.2475-1.5158.2407-2.0017.1442-.2773-.055-.5686-.1885-.651-.4959-.0376-.1403-.2125-.3924-.3736-.4457-.3337-.1104-.752.003-1.261.6684-.3188.4172-.369.533-.8463.533zm18.002-.8564c.148-.6861.1275-1.4601.0104-2.2877.7988.4154 1.891.5597 2.233-.112.3033-.5953 1.054-.6917 1.4526-.617.3616.0678.7447.3725.923.7342.1893.384.651.3601 1.0941-.083.5986-.5986 1.3122-.4702 1.5303-.3885.2953.1105.447.2483.538.4794-.257-.1692-.4218-.229-.6957-.229-.2853 0-.8602.3448-1.0454.8275-.0813.2118-.3085.6928-1.0667.6928-.5258 0-.7827-.1393-.9875-.2925-.4145-.31-.5912-.49-1.4663.6238-.2437.3102-.5008.464-.7864.5583-.3187.1053-.5564.1664-.9337.1664-.4722 0-.371-.1646-.7998-.0727zm-14.136-3.4745c-.3388-.252-.5431-.2978-.5993-.4887.2248-.014.532-.0606.9465-.1119.4484-.0555.823-.0798 1.0158-.0193-.117.317-.4839.6161-.6398 1.1681-.2757-.1723-.4769-.3651-.7232-.5482zm13.518-.9068c.435.127.3864-.0128.6531-.1668.2316-.1337.6597-.3227.8696-.182-.1735.169-.3126.235-.4581.437-.3962.5503-.333.6085-.599.763-.0362-.1891-.1216-.3415-.2044-.4721-.1146-.1809-.2455-.1562-.2613-.3791zm-12.7583-2.4148c-.4785-.9552-.7414-1.3567-.9435-1.7173.2282.0127.5434.3182.7048.4623.3227.2883.5695.423.8863.5472.7047.276 1.2777.8068 1.5192 1.1119-.2034.1847-.3557.2428-.5055.3292-.129.0744-.3137.2507-.493.4347-.1237.127-.2663.2907-.3731.4914-.1678-.2636-.3478-.7665-.7952-1.6594zm11.3656 1.0191c-.2435-.1748-.399-.3563-.7308-.5297.4356-.5006.7073-.5537 1.1244-.8434.6056-.4208.8557-.5618 1.0812-.7697.3034-.2795.4647-.4745.7373-.6132-.445 1.0763-.4945.9692-.773 1.525-.2536.506-.326.7725-.5342 1.1719-.1238.2376-.1207.3964-.2818.6536-.1295-.1439-.319-.3761-.6231-.5945zm-2.072-1.2855c-.2963-.0957-.4156-.153-.594-.1894.3284-.461.898-.784 1.3473-1.096.0776.0776.0905.5735-.1003 1.6353-.37-.1802-.4846-.2955-.653-.3499zm-6.2458-.9266c-.0537-.5135-.14-.6804-.2345-.9091.3226.1386.422.261.6134.3944.2017.1406.3693.2696.5714.449.217.1928.3644.2686.6634.4708-.2187.1228-.3798.155-.5723.195-.13.0271-.3037.1208-.4224.2267-.1715.153-.3389.2777-.6575.3428.078-.4382.0765-.8059.0385-1.1696zm3.147.3502c-.3662 0-.7802.0101-.9102.0401-.0263-.2434-.1095-.5176-.1616-.8007-.0694-.3767-.06-1.0832.034-1.3561.1377-.4006.5123-.7642.9416-.9927.8348-.4443.7835-.7111.5154-1.0567-.137-.1766-.4698-.225-.7295-.3066-.2917-.0917-.4293-.541-.3366-.8867.1573-.5872.6849-.9837.8527-1.0533.2958-.1228.5002-.3057.5875-.5015.1976.3135-.0713.3727-.376.731-.225.2647-.2871.652.3516 1.0207.2887.1667.9582.7424.9582 1.6674 0 .359-.0179.5388-.7252 1.233-.4294.4213-.464.5612-.0368.9676.284.2702.39.5307.4156.8428.0167.2026.022.3477-.005.6939-.1998-.009-.3486-.0916-.5243-.1475-.1606-.051-.4166-.0947-.8511-.0947z"/><path fill="#b70d0e" d="M289.3874 113.9463 154.828 150l134.3288 35.993c1.6004.4289 3.2465-.5207 3.64-2.1301A146.9998 146.9998 0 0 0 297 150a147.006 147.006 0 0 0-3.9908-33.9188c-.3835-1.6119-2.0214-2.5637-3.6218-2.1349z" paint-order="stroke fill markers"/><g fill="#ff2106" paint-order="stroke fill markers" transform="translate(252.9536 133.8792) scale(.10667)"><ellipse cx="152.6591" cy="151.1277" rx="88.6275" ry="88.6718"/><path d="m132.9184 71.4306 8.4748-36.2656h16.823l9.1572 35.1438zm54.0318 3.2375 24.8004-23.696 13.9132 10.557-13.2555 29.909Zm36.6974 31.8929 35.8499-1.3351 4.889 15.7935-29.6272 19.4844zm13.1974 52.1986 29.6876 17.6477-5.4308 16.9634-33.6538-2.603zm-20.153 47.4898 14.6323 29.8349-16.4142 12.692-25.4372-21.7864zm-43.9137 27.2356-8.8216 33.7497h-17.8744l-6.2619-33.4908zm-51.8523-4.8772-25.309 22.7314-16.3532-11.4717 13.229-31.2218Zm-38.5198-33.7622L46.6184 197.52l-6.529-15.438 30.54-20.7029zm-12.2606-49.7092L39.113 125.517l6.5901-17.9397 33.728 5.2267zm19.515-48.1757L73.9551 64.0093 90.6134 53.27l25.3195 23.1332Z"/></g><path fill="#55142a" d="m288.6257 188.4384-134.444-36.0243 98.2595 98.2614c1.1716 1.1716 3.0677 1.168 4.208-.034a147 147 0 0 0 34.0339-58.5468c.4803-1.5857-.457-3.2275-2.0574-3.6563z" paint-order="stroke fill markers"/><path fill="#bd1864" d="M254.248 220.9587c-.8998-2.2819-2.499-4.2699-4.6496-5.78-3.171-2.2264-4.8766-5.1736-4.4793-7.7399.3007-1.9432 1.8637-3.8292 3.6239-4.3728 1.7875-.5521 3.9405-.019 5.3201 1.3172l.5494.5442v16.9633c-.1275-.3059-.2186-.5617-.3646-.932zm1.5103-3.1242c.5386-1.6132 1.0499-2.389 3.1805-4.825 2.1137-2.417 2.7283-3.6017 2.4377-4.6997-.3103-1.1721-.9674-1.7507-2.1711-1.755-1.28-.005-2.9624.7903-3.734 1.7505-.24.2986-.462.576-.462.576v-3.954c.3774-.4208 1.0064-1.0496 1.9258-1.4853 1.0424-.494 1.7198-.6285 2.8436-.5644.785.0447 1.0686.113 1.6418.3952 1.8044.8883 3.1314 2.8804 3.1387 4.8631.009 2.4572-1.6526 5.0254-4.584 7.0852-1.967 1.382-3.2751 2.9428-4.3261 5.1616-.321.6775-.4278.9306-.6263 1.508-.005-1.2769.3237-2.7374.7354-4.0563z"/><path fill="#520c61" d="m250.6755 252.4412-98.2614-98.2596 36.0243 134.444c.4288 1.6005 2.0706 2.5378 3.6563 2.0575a147 147 0 0 0 58.5468-34.034c1.202-1.1402 1.2056-3.0363.034-4.2079z" paint-order="stroke fill markers"/><path fill="#9c4dad" d="m205.9836 264.597-.092-.6268c-.0628-.4289-.5691-1.1032-1.1584-1.5653-.3539-.2776-.8978-.5035-1.3773-.6786-2.6389-.9642-4.6724-2.642-5.536-4.6042-.602-1.3675-.7449-3.6103-.2467-4.9262.6506-1.7188 2.8553-2.8017 4.0766-1.7294.5683.499.559.9823.342 1.2506-.1792.2215-.3627.325-.6465.3583.1624-.1364.2496-.254.3092-.4034.0703-.1761.0201-.4824-.1002-.6456-.1214-.1645-.3339-.2655-.6353-.3071-.5508-.076-1.037.113-1.4374.8064-.3392.5876-.4152 1.8074.5612 3.5711.547.9883 1.5384 1.905 2.372 2.3258 1.5832.7993 3.1382.713 4.895-.4442 1.1301-.7446 1.8158-.9635 3.0511-.9635 1.1417 0 2.0264.3957 2.9795.983.8302.5115 1.5692.844 2.2317.9008 1.378.118 2.5814-.1674 3.9384-1.4967 1.472-1.442 1.9613-3.2868 1.8065-4.3188-.0617-.4112-.1866-.6937-.4392-.951-.268-.2728-.6633-.4943-1.2217-.4102-.6547.0986-.8323.451-.7686.844.0328.2022.1517.3917.3973.5167-.3545.0384-.5616-.17-.6983-.3472-.3658-.474-.006-1.2453.8162-1.574.8464-.3383 2.179.0768 2.9292.9312 1.0042 1.1437 1.2492 2.9323.7342 5.1257-.5677 2.4178-2.9578 4.3952-5.5308 5.4053-.5007.1965-1.2409.509-1.512.688-.6615.4368-1.2297 1.0394-1.319 1.6878l-.0823.5975zm5.3527-4.5372c1.334.15 2.3348.4003 2.9701.626.2256.0802.4096.1408.6116.2245-.0768-.2555-.248-.5535-.5923-.9538-.4882-.568-1.0877-1.1892-2.275-1.7003-.8684-.3738-2.1927-.5552-3.5371-.0195-.9923.3953-1.602.9484-2.3184 1.7167-.359.385-.5028.5723-.71.9937.4134-.1952.883-.3401 1.3804-.465 1.4073-.353 3.2188-.5631 4.4707-.4223zm-5.0282-4.427c-.5644-.1752-1.2174-.6856-1.4481-1.1318-.2535-.49-.2112-1.1204.0575-1.3914.5275-.532 1.6735-.3014 2.1402.2345.1985.2279.2901.4769.2758.795-.1641-.2628-.359-.4456-.576-.5882-.4363-.287-.8166-.3182-1.1264-.0661-.285.232-.1649.6056.0458.8448.3304.3752.6344.6788 1.4146.6788 1.1738 0 1.7105-1.2257.7958-3.1695-1.3053-2.7734-3.8082-3.2491-5.945-3.4452-.3707-.034-.9872-.0689-1.3085-.0689l-1.4141-5.1344c1.2984.05 2.2659.2337 3.5652.6583 3.6567 1.195 5.5163 3.2359 6.3144 6.0339.3022 1.0598.4356 3.5878.054 4.5274-.2181.5375-.5171.9976-1.0531 1.2363-.371.1652-1.1625.182-1.792-.0134zm6.187.0442c-1.0669-.4254-1.4394-1.713-1.329-3.7528.245-4.522 3.0893-7.4387 8.2475-8.5076.5843-.121 1.213-.2068 1.9048-.2251l-1.4495 5.1683c-.376-.0164-.8334-.006-1.4494.0552-2.4236.2423-3.7896.9821-4.6406 1.811-.7273.7083-1.5691 2.0354-1.5691 3.4388 0 .5285.1103.7912.3363.9977.5237.4785 1.4349.5753 2.2862-.272.2856-.2842.3918-.6491.069-.9247-.3255-.2777-.7391-.1942-1.188.1069-.1709.1146-.356.3133-.49.5684.028-.9518.7162-1.331 1.5663-1.331.4373 0 .6351.1175.7978.2519.1853.153.314.4138.314.6613 0 .5206-.3754 1.0588-.7886 1.4215-.6364.5588-1.9176.8113-2.6178.5321z"/><path fill="#3e1601" d="M185.993 289.157 150 154.832l-35.993 134.325c-.4289 1.6003.5207 3.2464 2.1301 3.64A146.9998 146.9998 0 0 0 150 297a147.0014 147.0014 0 0 0 33.8629-4.203c1.6094-.3936 2.559-2.0397 2.1302-3.64z" paint-order="stroke fill markers"/><path fill="#ba1016" d="M149.9181 281.5794c-.1706-.9093-.0143-2.5325.0556-5.0553.1636-5.907.0291-6.7489-.455-6.9395-.4023-.1583-1.7412.5699-2.1091 1.284-.1448.2809-.2302 1.0225-.2302 2.4498 0 1.1782.057 1.6306.1577 2.736.1478 1.622.1606 2.0779.0239 2.4275-.0805.2059-.3391.4596-.6078.4596-.2606 0-.4581-.2307-.5463-.3834-.2458-.4258-.1912-.9532-.0284-2.198.0764-.5846.1494-.9496.23-3.0496.0854-2.2258-.0516-2.2282-.422-2.2282-.21 0-1.051.4599-3.9558 1.8188-1.5784.7384-3.495 1.6358-5.04 2.3593 1.46-1.0828 8.0573-5.7385 10.684-7.4882 1.778-1.1843 2.78-1.8123 5.319-3.0946 4.4264-2.2353 9.3415-4.446 10.5039-4.9634-.9938.7938-1.4714 1.1304-2.69 2.0339-1.0457.7753-2.353 1.7445-3.0723 2.278-1.5249 1.1313-2.7766 2.2994-2.9619 2.991-.2396.8944-.4246 1.8352-.2434 5.2469.128 2.4096.2162 3.195.0777 3.73-.0742.2868-.2987.4409-.4956.4409-.2227 0-.3954-.21-.4806-.5123-.152-.539.0166-1.7089.063-4.049.0396-1.9918.2038-3.8451-.2419-4.207-.209-.1698-.6478-.2103-1.4019.3343-.5871.424-.9183.4285-1.071 2.9685-.0719 1.1964-.1068 4.2143.2669 8.8015.0609.747.0349 1.523-.011 1.7864-.0898.515-.313.8233-.6297.8233-.3283 0-.6063-.368-.6876-.8012z"/><path fill="#306800" d="m111.5616 288.6257 36.0243-134.444-98.2614 98.2595c-1.1716 1.1716-1.168 3.0677.034 4.208a147 147 0 0 0 58.5468 34.0339c1.5857.4803 3.2275-.457 3.6563-2.0574z" paint-order="stroke fill markers"/><path d="M90.2146 239.7562c-.2626 1.1572-.6965 1.7357-1.1678 2.3924a11.3675 11.3675 0 0 0-6.0016 2.4796c-.8362-.0667-1.4875-.28-2.4943-.9869.6516 1.0421.8334 1.7633.9203 2.5393a11.3263 11.3263 0 0 0-2.5386 6.054c-.6333.5308-1.363.946-2.3839 1.1554 1.014.2381 1.793.578 2.3761 1.075a11.3263 11.3263 0 0 0 2.573 6.1954c-.146.8912-.395 1.5907-.9527 2.5268.8843-.6978 1.621-.914 2.48-1.003-.8632-1.154-1.1057-2.2907-.325-2.937.4539-.3756 1.2501-.4638 1.96-.332.8207.1523 1.5963.463 2.3837 1.2816.7531.783 1.2035 1.9506.862 3.048-.1306.4197-.324.7387-.6642 1.0638a11.375 11.375 0 0 0 1.8144.349c.4715.5811.9146 1.2593 1.1804 2.3626.1896-1.1028.5708-1.7497 1.0386-2.357a11.3784 11.3784 0 0 0 1.9284-.3652c-.3036-.3027-.5006-.6006-.6473-1.0719-.3293-1.0583.0841-2.2587.847-3.0215.8672-.8673 1.6987-1.2075 2.4814-1.3188.6758-.0961 1.3595.006 1.846.3382.7714.5263.6165 1.9683-.2416 2.803.9556.1477 1.5157.3127 2.428.9789-.6603-.9854-.8056-1.7273-.8735-2.5186a11.3258 11.3258 0 0 0 2.4432-6.0267c.7292-.5378 1.2849-.836 2.3838-1.0383-1.0784-.2495-1.7092-.6057-2.3646-1.1476a11.326 11.326 0 0 0-2.4437-5.9647c.0427-.7681.1893-1.5906.8794-2.5485-.9213.642-1.5298.8962-2.4394.9567a11.3672 11.3672 0 0 0-6.2252-2.6009c-.5095-.7263-.8521-1.3638-1.0623-2.361zm-5.4948 8.7128c2.7219 0 4.9284 2.155 4.9283 4.8135 0 2.6583-2.2065 4.8133-4.9283 4.8132-2.7217 0-4.928-2.155-4.928-4.8132-.0001-2.6584 2.2062-4.8134 4.928-4.8135zm10.992 0c2.7199 0 4.9248 2.153 4.9248 4.8087s-2.2049 4.8086-4.9248 4.8087c-2.7198 0-4.9247-2.153-4.9247-4.8087 0-2.6558 2.2049-4.8087 4.9247-4.8087z" paint-order="stroke fill markers"/><path fill="#104ea2" d="m47.5588 250.6755 98.2596-98.2614-134.444 36.0243c-1.6005.4288-2.5378 2.0706-2.0575 3.6563a147.0002 147.0002 0 0 0 34.034 58.5468c1.1402 1.202 3.0363 1.2056 4.2079.034z" paint-order="stroke fill markers"/><path fill="#001957" d="M41.946 223.0683c-1.0398-.1732-1.967-.5004-2.527-.9155.58.14 1.14.2194 1.6068.2339 1.956.0605 2.7159-.2441 3.6712-.745.868-.455 1.613-1.205 2.11-1.9392.425-.6277.7134-1.1845.9127-1.7928.1023-.3124.1892-.5641.2955-1.0436.1242 1.1073-.006 1.7694-.2395 2.6397-.2257.8426-.6476 1.6455-1.3827 2.3407-1.5209 1.4383-3.1363 1.4401-4.447 1.2218zm10.869-.763c.4078-.4148.5702-.6181.8653-.9955 1.2431-1.5896 1.5567-2.8873 1.5567-4.1857 0-1.4744-.3888-2.646-1.595-4.2401-.149-.1971-.3565-.44-.6444-.742.6557.3142 1.1994.676 1.757 1.2337 1.3824 1.3823 1.7721 2.8411 1.6739 4.1027-.0752.9652-.3761 1.7703-1.0254 2.6544-.735 1.0011-1.9346 1.8575-2.5882 2.1725zm-16.4583-5.8715c-1.5144-.3789-2.5188-1.1838-3.2361-2.6382-.5641-1.144-.7589-2.236-.7687-3.285.122.4056.2328.6935.3326.9056.5007 1.0637.9809 1.8475 1.6962 2.5323.6915.662 1.4937 1.164 2.2895 1.4018 1.7792.5318 2.8947.4355 4.6544-.0843-.28.2257-.6115.4285-.961.6048-1.609.8112-2.9624.8243-4.007.563zm22.8439-7.6393c-1.5301-3.179-4.3909-4.2088-7.2406-3.713-.4215.0735-.838.1911-1.2159.3436.328-.286.5558-.4318.869-.5895 1.0849-.5464 1.9857-.782 3.1798-.7342.761.0305 1.2907.1908 1.78.4229 1.605.7613 2.1945 1.9206 2.445 2.4495.4519.9546.6955 2.182.7171 3.1152-.1516-.3943-.3174-.8436-.5344-1.2945zm-21.1083-.9148c-1.9177-1.4176-2.4587-3.216-2.3935-4.5785.0307-.6412.107-1.0839.4898-1.8562.4151-.8378 1.3028-1.8631 2.283-2.5376.3267-.2246.4362-.302.8528-.5079-.3366.2905-.4791.4747-.8007.8738-2.0363 2.527-2.2946 5.3884-.158 8.3663.249.347.5174.6312.7676.8645-.3592-.1532-.6886-.3639-1.041-.6244zm9.7616-10.3541c1.506-.4036 3.9396.1013 5.0103.9337-3.244-.9033-5.9716.3619-7.2822 2.099-.7746 1.0267-1.1187 1.8343-1.448 3.0928-.217-1.3079.2584-5.198 3.72-6.1255z"/><path d="M10.843 185.993 145.172 150 10.843 114.007c-1.6004-.4289-3.2465.5207-3.64 2.1301A147 147 0 0 0 3 150a147 147 0 0 0 4.203 33.8629c.3936 1.6094 2.0397 2.559 3.64 2.1302z" paint-order="stroke fill markers"/><path fill="#fff" d="M27.2463 161.874c-.7694-.1015-.8578-.1345-1.2978-.3123.5774.0336.9133.0144 1.4797-.054 2.8772-.3476 5.312-1.9524 6.2-4.9744.4803-1.6342.444-3.1894-.1014-4.342-.5932-1.254-1.8095-1.9793-2.7103-2.1817-.3144-.0707-.8454-.1962-.8454-.1962s.2994.4728.5906 1.2106c.2625.665.3837 1.1173.3878 2.0595.004.991-.0846 1.2632-.4844 2.0725-.6954 1.4077-2.2038 2.4974-4.2363 3.0607-2.0859.578-4.5638-.018-6.223-1.497-.6354-.5662-1.5358-1.7754-2.0022-2.8485-.2306-.5307-.3958-.9192-.5415-1.3905.2608.3913.5227.779.8462 1.1567 1.3362 1.56 2.686 2.4666 4.2058 2.8249 2.7501.6483 6.15-.6217 7.2367-2.9017.4235-.8887.4392-1.7683.2169-2.7615-.081-.3621-.2694-.9827-.2694-.9827s-.0896.3594-.2974.7112c-.3208.543-1.6376 1.6889-2.336 2.0327-1.4002.6893-2.7316.6782-4.2187-.0349-.9045-.4338-2.2625-1.5163-2.8073-2.2379-1.675-2.2186-1.8391-5.2187-.4209-7.6975.4017-.702 1.1652-1.7918 1.683-2.1576-.281.4461-.4812.864-.6059 1.1742-.8845 2.1995-.968 4.186-.0778 6.1107.624 1.3491 2.004 2.7193 3.4712 3.4464.7568.375 1.0016.4913 1.8602.4913.888 0 1.154-.1328 1.6887-.3835 1.0584-.496 1.9218-1.5064 1.9218-1.5064s-.4652.0418-.939-.0174c-1.8722-.234-3.5304-1.3124-4.2023-2.7331-.7728-1.6342-.6475-4.179.2962-6.0175.5841-1.138 1.8637-2.379 3.0165-2.9258 1.1909-.5648 2.0514-.7369 3.422-.7369.8263 0 2.0302.1335 2.2956.3235-.6154-.0415-1.2691.0584-1.8788.2032-4.5144 1.072-5.8792 4.2035-5.8792 7.136 0 1.0228.202 1.568.3096 1.8398.4674 1.1805 1.7975 2.3334 3.0091 2.53.2293.0372.6498.1087.6498.1087s-.2523-.2367-.3534-.4797c-.4898-1.177-.5592-1.639-.565-2.7775-.006-1.1529.003-1.1968.3942-1.9889 1.185-2.3978 4.6803-3.8192 7.5727-3.0794 2.0865.5336 3.599 1.8119 4.6152 3.9004.4336.8911.6503 1.416.8293 2.069-.3459-.5707-.5653-.8503-.9904-1.3984-2.3182-2.989-5.8742-3.771-9.2143-2.0262-.9915.5179-2.3059 1.2956-2.4481 3.7526-.0486.839.3726 1.9712.3726 1.9712s.285-.5532.6057-.9534c.6335-.7906 1.804-1.6605 2.6124-1.9418.8757-.3047 2.2957-.2637 3.1412.0907 1.0662.4469 1.8011.938 2.6879 1.7964 1.309 1.2672 2.0292 2.9538 2.0292 4.7522 0 1.4865-.494 2.9476-1.4967 4.4257-.3668.5407-.7318.9815-1.14 1.359.2886-.4966.4253-.7724.6178-1.221.6492-1.5134.8277-3.7447.4094-5.1178-.3519-1.1551-.8964-2.0267-1.8668-2.9882-.9764-.9674-2.1799-1.6565-3.2317-1.8506-1.1607-.214-2.637.2622-3.5722 1.1974-.4328.4329-.593.667-.593.667s.1845-.0996.3764-.0996c.2962 0 .5851.0687 1.1099.1694 1.4233.2731 2.9247 1.27 3.569 2.3694.5835.9961.7554 2.773.4277 4.4219-.5186 2.6086-2.6396 4.7617-5.2234 5.3024-.728.1523-2.3462.174-3.088.0763z"/><path fill="#00923d" d="m11.3743 111.5616 134.444 36.0243-98.2595-98.2614c-1.1716-1.1716-3.0677-1.168-4.208.034A147.0002 147.0002 0 0 0 9.317 107.9053c-.4803 1.5857.457 3.2275 2.0574 3.6563z" paint-order="stroke fill markers"/><g fill="#06ffc9" transform="translate(32.252 70.8651) scale(.10667)"><ellipse cx="131.382" cy="174.484" paint-order="stroke fill markers" rx="88.4667" ry="87.9576"/><path d="m54.8062 195.7361-7.879 4.3565c1.3104 4.007 2.7612 6.1181.0761 8.8032-2.098 2.098-6.111.5706-11.2909-3.6211-7.3373-5.9375-9.336-9.2392-14.831-9.2392-5.4062 0-9.6358 3.6072-11.673 6.9034-3.046 4.9284-2.587 16.7755-.7546 24.5872 6.0857 25.9432 22.7905 44.2514 44.0342 52.893 3.8695 1.5741 6.5427 2.3254 11.2597 3.1338-4.5266-1.6198-6.764-2.5899-9.7442-4.1782-5.7865-3.0842-15.5751-10.122-22.2351-20.0956-6.6334-9.9335-8.991-19.5784-8.991-24.6316 0-2.6981 1.0583-7.1332 4.2473-7.1332 5.037 0 10.3489 3.2142 15.5707 7.8395 12.0881 10.7071 17.927 11.3294 23.1144 6.1492l3.9416-3.9361 6.441-4.9314zm154.7293-2.4228-23.473 38.6495 7.6117 4.4172c2.916-2.7908 5.4633-4.861 8.2569-4.861 2.5303 0 4.346 2.0769 4.346 7.877 0 3.4838-1.712 8.396-2.1405 12.6449-.2943 2.919-.4146 6.3099.1665 7.94.491 1.3771 1.9012 3.3609 3.2397 4.5212 5.0414 4.3701 12.607 4.8857 23.0686-1.9145 4.6702-3.0356 9.6275-7.3477 12.9878-10.9005 18.1086-19.1456 22.0762-42.412 19.9393-58.0188-.7322-5.3482-1.5253-8.3714-3.8269-13.53.8526 5.5386 1.2768 10.1183 1.102 13.335-.9712 17.8602-4.6846 28.955-14.2496 39.4207-7.808 8.5433-13.7188 12.107-17.3312 6.8691-2.4462-3.5469-1.0863-13.4075.596-21.227.5348-2.4862.708-7.891.206-10.562-.832-4.4282-2.0328-6.6897-8.3321-8.7268l-5.038-1.6291zM123.462 36c-14.1566 0-30.9694 5.2512-42.9704 14.2725-4.7496 3.5703-7.589 6.2886-10.6109 11.3783 3.6379-3.5677 6.796-6.2777 10.5991-8.4735 19.5816-11.3054 30.8546-11.242 41.8914-8.4126 10.9033 2.7952 15.4006 6.5375 15.4006 9.0497 0 3.5937-2.8774 6.823-16.617 12.1467-7.3466 2.8466-9.6062 3.6488-12.4826 6.8326-4.2881 4.7465-2.8589 8.6613-2.1458 11.6404l1.3455 5.6212-.1658 8.2232 48.8816-.1126-.0132-7.864c-9.575-2.5628-12.5531-5.385-12.5531-8.043 0-2.6037 3.109-5.838 12.5622-9.1586 3.643-1.2797 8.1244-2.7792 9.9609-4.4941 1.351-1.2616 3.2535-3.7624 3.2535-8.8605 0-5.4306-3.2076-11.5203-13.8833-16.6168C148.6164 39.6448 135.5453 36 123.462 36Z"/></g><path fill="#ffde55" d="m49.3245 47.5588 98.2614 98.2596-36.0243-134.444c-.4288-1.6005-2.0706-2.5378-3.6563-2.0575a147.0002 147.0002 0 0 0-58.5468 34.034c-1.202 1.1402-1.2056 3.0363-.034 4.2079z" paint-order="stroke fill markers"/><path fill="#fdfdfd" d="m88.2646 49.8415-1.2063-.6615c-.6059-.3323-1.1707-.6537-1.7034-1.0748-1.0377-.8202-1.3022-1.408-1.6105-3.7332-.132-.995-.487-1.7247-1.2785-2.1192-.8175-.4073-1.6535-.426-3.2997.0978-1.6856.5364-2.4932.556-3.1896.2172-.25-.1216-.6547-.493-.8132-.7071-.2574-.3478-.3798-.7675-.3798-1.1776 0-.3349.007-.6559.3338-.9998.4478-.471.8073-.65 1.3458-.6421.6904.0102 1.0822.559 1.1714.9466-.133-.2198-.5003-.4831-.7919-.4831-.7066 0-1.1448.6402-.769 1.3459.3778.7092 1.2647.7002 3.2122-.5539 2.3218-1.495 3.5679-1.5485 4.7629-1.0372 1.4732.6303 2.2268 2.393 2.4806 4.3671.2234 1.7368.749 2.5732 1.7107 3.5222l.7628.7528v2.9693c-1.5608.7706-4.0247 2.0404-5.5737 2.956zm1.2234 1.0294v-2.9693l.8671-.8573c.84-.83 1.2643-1.4733 1.592-3.4163.2843-1.6859.5875-2.2949 1.0918-3.0967.666-1.0585 2.5-2.7229 6.1857-.2108 1.0025.6833 1.7969 1.0114 2.3926 1.0114.7136 0 1.3113-.924.6907-1.5447-.171-.171-.3366-.2854-.5875-.2854-.29 0-.6791.2405-.8249.4695.038-.2576.1334-.447.4725-.7137.4927-.3875 1.3228-.2772 1.9427.382.5252.5586.5007 1.2922.1466 1.9532-.5614 1.0482-1.3348 1.6121-3.8161.8694-2.4509-.7336-3.4675-.5135-4.1457.2102-.4655.4968-.5941.8516-.8566 2.455-.3745 2.2874-.8534 2.8408-3.7515 4.3792l-.6309.3349 4.8326 3.9854c-1.8568-1.0636-4.0879-2.2282-5.6011-2.956zm-7.8712-.5283c-.4965-.4758-.8605-.9338-1.1786-2.0925-.3347-1.2186-.9364-1.6434-1.644-1.488-.2971.0653-.7003.4324-.7015.8338-.0008.2439.1347.4459.3171.6283.4616.4615 1.0361.114 1.0361-.2146 0-.15-.1583-.4101-.3519-.4528.285-.0597.536.0728.611.3174.1777.5799-.285 1.2277-1.017 1.2277-.5476 0-.8508-.1164-1.2304-.6249-.4675-.6261-.3831-1.532-.098-1.976.2845-.443.8862-.8132 1.5885-.8132 1.301 0 1.996.7461 2.451 2.1005.454 1.3513.8294 1.5738 1.5615 1.932.8875.434 1.6319.6246 3.3275.6246.3 0 .7284-.0168.9768-.0385l-1.734 1.4442c-.4927-.011-1.127-.0876-1.6765-.225-.6886-.1808-1.5547-.5287-2.2376-1.183zm9.6388-.0362c.4635.0397 1.0826.0384 1.8597-.001 1.8402-.0942 3.3254-.561 3.963-2.4065.4392-1.2712 1.0103-2.214 2.4522-2.214.7935 0 1.2857.3774 1.575.8127.3062.4608.4072 1.144.043 1.8233-.3387.6314-.8374.8149-1.3617.8149-.292 0-1.0456-.1935-1.0456-.99 0-.3874.3428-.6882.6534-.5995-.1623.076-.3129.283-.3129.4991 0 .4298.6166.5983 1.0656.144.7285-.737-.2919-1.8388-1.2105-1.3186-.2845.161-.6628.6321-.8871 1.4691-.1362.5084-.3936 1.0536-.6894 1.461-.733 1.009-1.74 1.6214-3.435 1.8311l-.9618.119zm-6.3404-.6914c-.6143-.132-1.3027-.4048-2.0135-.9765-.465-.374-.7437-.8678-1.0316-2.0946-.5354-2.2816-1.1638-2.6923-3.2293-2.0503-.8404.2612-1.44.208-2.1394.003-.5816-.1707-1.2091-.6449-1.613-1.5104-.138-.2958-.2464-.5299-.2515-1.117.2483.3836.7652 1.2375 1.426 1.5481.9965.4684 1.892.3552 3.2155-.1289 1.4468-.5292 2.4293-.4099 2.9878-.0874.8466.4888.9973 1.3924 1.1032 2.2939.234 1.9922 1.1675 3.198 2.7288 3.906l.944.428c-.8541.026-1.4551-.0694-2.127-.2137zm6.341.2163c1.5585-.5524 2.5559-1.0332 3.3743-2.5685.247-.4633.3577-.8182.5194-1.813.2317-1.4258.4024-1.6932.877-2.0925.7-.589 1.6315-.5742 3.0895-.0495 1.3318.4791 1.9735.519 2.7121.3657.4362-.0906.8724-.3224 1.2292-.6786.31-.3093.5877-.6984.8557-1.1495-.0004.538-.2467 1.562-1.067 2.2212-.7469.6004-1.8366.7964-3.0224.422-1.9802-.6252-2.635-.0382-3.0532 1.4796-.1387.5035-.3122 1.1338-.3969 1.4033-.7608 2.1903-3.4345 2.5253-5.1177 2.4599z"/></svg>