<svg xmlns="http://www.w3.org/2000/svg" width="32" height="32" viewBox="0 0 32 32"><g paint-order="markers stroke fill"><path fill="#4379e6" d="M16 0a16 16 0 0 0-2.1732.1719c-.8192.1214-1.2975.9377-1.0832 1.738L16 14.0644l3.266-12.1879c.2145-.8002-.2654-1.6106-1.0856-1.7245A16 16 0 0 0 16 0Z"/><path fill="#a49787" d="m20.233 2.1325-3.2662 12.1937 8.9237-8.9237c.5858-.5858.575-1.5272-.0787-2.0354a16.0003 16.0003 0 0 0-3.7773-2.183c-.7668-.3127-1.5872.1482-1.8015.9484Z"/><path fill="#f0840c" d="m26.5975 6.1095-8.9237 8.9237 12.1937-3.2662c.8002-.2143 1.261-1.0347.9483-1.8015a16.0003 16.0003 0 0 0-2.1829-3.7773c-.5082-.6538-1.4496-.6645-2.0354-.0787Z"/><path fill="#b70d0e" d="M30.1234 12.734 17.9336 16 30.09 19.2564c.8003.2144 1.6166-.264 1.738-1.0832A16 16 0 0 0 32 16a16.0003 16.0003 0 0 0-.1521-2.1804c-.114-.8203-.9243-1.3-1.7245-1.0857z"/><path fill="#55142a" d="m17.6738 16.9668 8.9042 8.9042c.5858.5858 1.5284.5762 2.0383-.0763a16.0003 16.0003 0 0 0 2.1893-3.7637c.3151-.7658-.1438-1.5856-.944-1.8z"/><path fill="#520c61" d="m16.9668 17.6738 3.2643 12.1878c.2143.8002 1.034 1.2591 1.8.944a16.0003 16.0003 0 0 0 3.7636-2.1893c.6525-.51.662-1.4525.0763-2.0383z"/><path fill="#3e1601" d="m16 17.9355-3.2564 12.1547c-.2143.8002.264 1.6165 1.0832 1.738A16 16 0 0 0 16 32a15.9955 15.9955 0 0 0 2.1732-.1719c.8192-.1214 1.2975-.9377 1.0832-1.738z"/><path fill="#306800" d="M15.0332 17.6738 6.129 26.578c-.5858.5858-.5762 1.5284.0763 2.0383a16.0003 16.0003 0 0 0 3.7637 2.1893c.7658.3151 1.5856-.1438 1.8-.944z"/><path fill="#104ea2" d="M14.3262 16.9668 2.1384 20.2311c-.8002.2143-1.2591 1.034-.944 1.8a16.0003 16.0003 0 0 0 2.1893 3.7636c.51.6525 1.4525.662 2.0383.0763z"/><path d="M.1719 13.8268A16 16 0 0 0 0 16a16 16 0 0 0 .1719 2.1732c.1214.8192.9377 1.2976 1.738 1.0832L14.0664 16 1.91 12.7436c-.8003-.2144-1.6166.264-1.738 1.0832Z"/><path fill="#00923d" d="M3.3837 6.2053A16.0003 16.0003 0 0 0 1.1944 9.969c-.3151.7658.1438 1.5856.944 1.8l12.1878 3.2642L5.422 6.129c-.5858-.5858-1.5284-.5762-2.0383.0763Z"/><path fill="#ffde55" d="M9.969 1.1944a16.0003 16.0003 0 0 0-3.7637 2.1893c-.6525.51-.662 1.4525-.0763 2.0383l8.9042 8.9042-3.2643-12.1878c-.2143-.8002-1.034-1.2591-1.8-.944Z"/></g></svg>